<svg version="1.1" xmlns="http://www.w3.org/2000/svg" viewBox="0 0 892.4496459960938 565.1529235839844" width="2677.3489379882812" height="1695.4587707519531">
  <!-- svg-source:excalidraw -->
  
  <defs>
    <style>
      @font-face {
        font-family: "Virgil";
        src: url("https://excalidraw.com/Virgil.woff2");
      }
      @font-face {
        font-family: "Cascadia";
        src: url("https://excalidraw.com/Cascadia.woff2");
      }
    </style>
  </defs>
  <rect x="0" y="0" width="892.4496459960938" height="565.1529235839844" fill="#ffffff"></rect><g stroke-linecap="round" transform="translate(10 69.486083984375) rotate(0 436.2248229980469 242.8334197998047)"><path d="M-1.11 1.01 C287.83 -4.81, 573.66 -5.65, 871.22 1.41 M-0.5 -0.01 C228.32 -4.29, 457.71 -4.96, 872.77 0 M873.7 1.35 C870.62 153.28, 871.37 309.28, 873.85 484.24 M872.25 0.26 C876.76 180.56, 876.51 360.94, 871.68 485.61 M871.57 487.25 C541.21 483.12, 209.63 481.13, 0.49 486.05 M871.94 485.34 C646.91 489.11, 419.66 488.6, -0.64 486.33 M1.54 485 C2.42 344.35, 1.54 199.73, 0.21 0.21 M0.34 485.85 C0.02 344.57, -1.06 203.05, -0.01 -0.06" stroke="#000000" stroke-width="1" fill="none"></path></g><g stroke-linecap="round" transform="translate(161.98635864257812 275.2159118652344) rotate(0 123.29852294921875 73.88385009765625)"><path d="M0 0 C0 0, 0 0, 0 0 M0 0 C0 0, 0 0, 0 0 M-0.17 6.67 C0.39 6.21, 2.1 3.64, 6.02 1.91 M-0.94 5.72 C0.86 4.41, 2.52 2.63, 4.7 0.77 M-2.37 9.16 C3.05 8.13, 8.26 3.4, 8.69 -2.42 M-1.21 13.42 C2.64 7.96, 7.11 5.03, 11.53 -0.64 M2.73 18.25 C3.43 15.68, 9.62 6.63, 14.42 2.31 M1.79 19.58 C4.13 13.47, 10.22 6.6, 16.6 2.01 M0.02 20.37 C7.06 16.96, 16.09 9.08, 24.05 -0.51 M-0.81 24.27 C5.66 18.08, 12.54 10.2, 22.49 -0.86 M-0.38 30.53 C12.95 22.74, 19.86 6.81, 28.57 -2.07 M1.45 29.97 C9.02 18.71, 20.26 6.73, 27.96 -1.16 M-3.43 39.31 C6.66 27.41, 20.41 18.88, 34.12 3.36 M-2.22 37.45 C12.21 24.58, 25.35 12.03, 33.71 -1.91 M-0.11 42.63 C11.31 29.24, 21.98 7.8, 39.96 4.12 M-0.06 44.21 C10.65 27.98, 25.12 14.26, 35.47 0.53 M-1.57 48.28 C15.68 32.38, 30.53 15.57, 43.54 1.41 M-1.6 50.69 C8.88 38.65, 18.7 24.56, 43.42 -1.7 M-2.82 50.88 C16.84 37.79, 28.3 27.73, 50.91 3.53 M1.04 54.8 C16.96 35.22, 35.36 14.82, 47.03 1.94 M3.77 58.17 C21.89 41.84, 35.47 16.57, 49.82 0.11 M-1.94 61.86 C16.58 39.64, 36.28 17.27, 54.45 -1.76 M0.84 65.99 C22.03 36.97, 48.62 12.49, 60.13 -3.59 M0.65 67.19 C13.21 53.75, 23.38 40.13, 57.37 0.11 M-0.21 72.76 C15.19 54.99, 29.42 34.94, 66.86 3.52 M1.22 74.24 C18.15 54.16, 34.79 33.74, 62.43 0.51 M-1.42 78.02 C28.36 47.1, 57.75 12.55, 70.69 0.66 M1.48 80.75 C26.53 51.52, 52.07 21.53, 68.04 -1.73 M2.06 81.42 C17.05 70.72, 30.58 49.02, 76.92 -2.63 M-0.81 85.31 C30.29 52.35, 54.68 19.9, 75.8 -0.05 M0.5 92.95 C22.09 63.5, 48.8 33.77, 82.04 3.81 M1.06 93.31 C31.11 54.08, 61.12 18.64, 79.37 1.81 M-2.11 99.94 C26.21 69.67, 54.84 37.28, 86.64 -3.03 M1.41 99.49 C24.49 70.54, 48.76 42.87, 83.83 -0.43 M1.74 105.59 C25.06 75.6, 51.26 49.4, 90 2.98 M-1.6 102.12 C36.66 62.66, 70.37 24.96, 90.55 -1.65 M-3.1 111.45 C35.8 62.4, 72.13 20.67, 95.03 -0.72 M-1.89 109.12 C20.89 84.52, 44.66 59.75, 96.59 -1.45 M-2.18 116.41 C30.84 79.93, 70.68 35.43, 102.79 -3.05 M1.32 116.63 C31.22 80.95, 62.5 41.97, 99.55 1.68 M3.14 118.97 C26.17 91.56, 55.69 60.81, 109.48 -1.11 M0.35 122.98 C39.01 74.51, 81.72 27.42, 104.96 0.27 M-0.03 132.23 C43.93 77.05, 86.75 28.4, 108.97 2.12 M-2.2 127.23 C36.43 84.65, 76.85 40.88, 111.15 -0.24 M1.7 134.39 C42.08 85.6, 90.6 31.43, 113.1 -3.25 M-1.32 135.32 C25.95 100.84, 55.07 69.77, 115.98 1.07 M-2.24 139.26 C51.74 89.45, 99.26 32.21, 125.5 -3.5 M-1.4 142.22 C48.58 84.03, 96.15 29.39, 120.97 -1.23 M-1.99 147.23 C35.61 108.39, 79.98 62.31, 123.34 -2.82 M-1.55 146.53 C27.53 119.11, 51.15 87.13, 127.47 -0.81 M5.15 153.31 C32.63 116.39, 62.15 89.62, 133.7 -0.27 M3.29 150.1 C38.74 111.74, 73.1 70.39, 131.4 -0.95 M9.13 148.33 C52.31 98.78, 100.38 48.35, 140.05 -3.6 M7.05 150.92 C51.58 94.47, 97.58 42.22, 136.1 -0.67 M9.71 149.79 C52.75 91.77, 99.9 44.67, 143.27 1.07 M13.5 149.52 C53.98 97.87, 101.56 43.75, 143.69 -0.86 M21.32 150.99 C60.88 98.52, 108.06 48.37, 148.13 3.48 M19.5 149.8 C60.66 103.99, 99.59 56.33, 148 1.62 M24.29 151.1 C73.91 96, 121.94 38.66, 152.3 -0.57 M24.59 148.68 C52.6 116.91, 84.53 86.27, 153.88 -0.24 M25.87 153.38 C74.84 103.25, 113.98 52.67, 156.84 1.13 M30.33 149.93 C79.26 88.41, 129.7 31.31, 158.12 -1.63 M30.67 151.44 C62.53 121.12, 87.56 89.07, 163.23 3.32 M33.25 150.13 C68.31 107.5, 104.7 67.27, 164.8 -0.16 M37.73 151.5 C87.38 96.21, 133.11 46.16, 167.82 1.67 M40.14 148.46 C70.29 113.76, 102.48 80.25, 170.21 2.11 M42.98 150.64 C92.77 94.18, 138.34 39.24, 174.88 -1.11 M44.99 148.64 C86.33 100.03, 129.16 50.49, 174.14 0.47 M52.24 151.01 C95.1 97.22, 143.11 38.2, 183.07 -0.93 M48.33 148.76 C96.45 94.14, 144.42 38.43, 180.85 1.51 M51.73 146.15 C83.55 120.69, 110.32 82.03, 182.46 -2.11 M54.13 151.16 C85.66 121.57, 110.03 88.94, 186.37 0.93 M61.09 151.17 C101.89 105.61, 138.21 55.54, 189 0.9 M61.14 148.34 C90.27 110.55, 124.18 72.99, 191.42 1.47 M63.82 149.06 C115.79 100.65, 154.47 45.51, 193.55 -2.27 M63.81 148.81 C105.47 100.22, 149.11 51.17, 196.77 -1.29 M68.36 152.87 C117.06 92.29, 169.33 32.61, 204.36 -3.63 M71.61 150.95 C102.07 116.04, 128.29 81.27, 200.12 -0.95 M78.51 152.06 C103.22 115.27, 136.23 78.06, 204.09 -2.59 M77.97 148.92 C126.32 94.16, 168.42 44.52, 207.45 1.47 M82.49 150.64 C115.35 113.38, 144.14 76.57, 208.29 -3.69 M83.6 150.49 C132 95.06, 181.42 37.38, 209.95 -0.5 M87.43 153.49 C131.45 101.93, 171.76 54.97, 214.41 -2.41 M85.38 150.98 C126.76 107.08, 163.39 62.37, 219.33 -0.95 M92.33 148.6 C138.73 93.29, 182.75 41.3, 220.31 1.17 M91.75 151.07 C130.06 108.09, 164.31 62.81, 220.74 0.29 M98.6 149.31 C145.1 89.98, 202.13 30.5, 229.22 0.53 M99.59 150.71 C129.22 112.93, 160.55 80.97, 228.13 -0.5 M107.06 152.54 C132.73 115.01, 164.19 70.62, 236.3 1.03 M101.56 150.97 C129.98 117.17, 159.62 84.61, 233.12 -0.98 M104.41 149.09 C148.04 93.67, 193.78 42.98, 240.93 2.88 M107.01 147.96 C137.75 116.64, 167.14 84.27, 239.74 1.8 M115.61 146.6 C147.63 109.21, 185.64 66.16, 244.53 -0.39 M112.66 151.42 C164.95 89.45, 211.89 30.19, 244.54 1.53 M121.62 152.05 C156.11 116.43, 188.06 70.15, 247.65 1.39 M118.81 150.83 C160.42 101.25, 205.76 50.81, 248.16 1.6 M121.24 146.29 C160.65 110.98, 192.13 68.38, 251.08 5.77 M125.46 149.58 C163.12 110.11, 198.27 69.27, 246.7 9.37 M127.38 147 C170.8 101, 206.44 56.38, 249.37 14.55 M131.02 151.56 C158.72 110.25, 193.16 74.85, 247.72 12.82 M137.62 146.99 C164.62 117.19, 191.13 83.49, 247.58 23.45 M133.22 151.05 C171.66 105.42, 209.82 63.62, 249.29 17.71 M139.19 152.41 C170.17 116.43, 206.83 80.34, 245.47 24.53 M140.45 150.59 C174.52 111.29, 211.48 73.33, 246.59 25.69 M143.45 152.99 C176.43 110.76, 205.24 72.13, 251.36 28.7 M144.67 150.87 C173.68 119.25, 197.73 89.25, 248.12 32.41 M150.94 152.35 C170.34 125.69, 190.59 103.03, 247.84 40.24 M152.74 148.57 C187.22 110.31, 222.32 67.36, 247.85 37.68 M153.81 146.18 C187.71 114.85, 224.36 69.59, 252.18 39.74 M155.35 150.27 C182.78 116.91, 210.9 87.83, 247.91 44.04 M164.9 152.53 C187.74 112.07, 219.5 84.38, 246.78 50.43 M162.33 150.3 C192.86 113.91, 226.32 75.69, 247.47 50.7 M164.15 150.06 C198.8 116.88, 233.29 80.31, 247.53 57.14 M167.6 148.65 C194.88 117.87, 224.69 84.12, 249.49 56.1 M175.7 148.28 C191.77 131.27, 205.11 112.9, 245.6 60.76 M172.48 148.8 C201.1 116.59, 231.47 80.22, 248.86 60.1 M174.3 149.8 C203.11 114.21, 235.01 84.77, 245.23 68.84 M178.61 151.63 C202.81 123.38, 226.03 94.56, 248.51 70.04 M186.36 148.56 C207.94 121.49, 223.17 95.41, 252.02 70.49 M183.27 149.26 C195.74 134.68, 207.17 118.05, 250.23 75.42 M188.45 148.14 C195.42 136.38, 211.22 119.89, 251.51 78.7 M188.33 150.98 C208.4 123.07, 233.14 97.95, 247.45 81.74 M192.27 151.94 C209.47 128.77, 232.48 105.57, 245.45 89.27 M191.57 149.06 C210.53 128.01, 230.4 107.79, 247.99 85.14 M199.19 149.49 C216.59 131.7, 232.28 108.99, 249.64 95.4 M199.57 148.69 C214.68 128.73, 230.39 109.51, 246.23 90.52 M205.2 146.63 C214.28 138.11, 231.54 124.37, 251.66 102.11 M203.09 149.77 C218.4 132.54, 233.12 114.36, 247.28 97.67 M211.46 151.85 C222.96 137.43, 229.78 119.33, 247.26 101.28 M209.93 148.91 C218.67 141.18, 227.86 128.3, 249.64 103.88 M213.27 150.46 C227.7 131.73, 237.57 120.98, 250.81 113.9 M216.33 149.15 C226.51 136.22, 238.46 119.83, 246.13 109.85 M218.58 146.89 C227.94 139.14, 234.47 134.64, 251.72 117.05 M219.82 149.99 C230.1 137.76, 235.92 128.87, 246.58 118.28 M229 146.89 C233.17 136.48, 245.42 129.97, 252.12 122.41 M226.61 149.15 C228.61 142.57, 234.61 137.72, 250 123.98 M226.28 151.85 C234.41 142.71, 237.14 141.9, 248.72 126.78 M228.46 148.49 C238.72 140.59, 242.34 132.29, 248.74 128.08 M232.64 149.75 C235.1 148.24, 245.37 145.69, 245.14 135.03 M233.41 148.64 C237.85 145.33, 240.61 141.71, 247.19 136.54 M242.91 151.89 C241.19 148.77, 243.68 144.69, 247.13 139.78 M241.43 150.49 C243.13 146.62, 246.29 142.77, 247.3 141.81" stroke="#228be6" stroke-width="0.5" fill="none"></path><path d="M2.1 -2.05 C95.74 -0.51, 192.18 0.98, 244.49 1.32 M1.06 1.21 C75.32 -0.7, 146.63 0.03, 246.48 1.36 M244.7 -0.93 C249.95 33.13, 248.16 63.87, 244.62 144.14 M245.61 -1.1 C250.93 43.26, 250.09 86.09, 245.24 148.38 M248.07 145.69 C165.32 152.61, 88.1 148.62, -0.74 145.14 M246.04 149.26 C151.61 148.63, 58.87 147.78, -1.3 147.97 M-1.2 149.35 C1.17 104.2, -0.69 52.92, -3.96 -0.07 M0.43 146.65 C-4.89 103.26, -2.18 59.64, -1.67 -1.9" stroke="#000000" stroke-width="1" fill="none"></path></g><g stroke-linecap="round" transform="translate(557.9192199707031 271.5146789550781) rotate(0 129.55889892578125 77.34124755859375)"><path d="M0 0 C0 0, 0 0, 0 0 M0 0 C0 0, 0 0, 0 0 M0.01 6.07 C2.46 5.97, 2.48 3.7, 4.07 -1 M-0.14 5.73 C0.61 5.57, 1.93 3.51, 5.67 -0.27 M2.12 10.52 C0.41 7.14, 5.87 6.2, 12.79 -2.72 M-0.11 13.41 C5.26 6.75, 7.51 2.45, 12.05 1.11 M1.89 15.74 C3.36 14.92, 7.97 5.16, 17.45 4.17 M1.52 16.5 C6.51 13.65, 11.04 6.6, 17.07 0.2 M4 23.6 C7.3 18.61, 9.06 17.79, 22.26 -2.23 M0.19 25.03 C8.13 15.51, 14.36 7.2, 23.09 -0.26 M1.1 28.31 C9.74 18.6, 19.1 10.34, 27.15 3.18 M-0.68 30.68 C9.4 20.66, 14.99 11.85, 24.4 -1.3 M0.1 40.81 C14.24 26.8, 26.28 8.83, 28.63 -4.03 M1.56 38.63 C11.95 22.68, 21.87 14.29, 33.88 -0.23 M-3.58 38.88 C14.6 33.11, 23.65 14.64, 38.87 -0.13 M0.84 42.12 C13.63 26.7, 29.36 9.49, 36.2 -0.46 M3.79 45.66 C12.45 36.88, 21.3 23.96, 42.7 -3.09 M-1.45 48.51 C17.72 27.56, 32.65 8.5, 43.22 -1.68 M2.6 56.65 C12.61 47.07, 21.36 35.25, 48.08 1.76 M2.26 53.9 C14.25 39.21, 30.28 19.17, 46.84 2.1 M-1.62 57.93 C8.03 46.79, 26.11 35.25, 51.12 -4.08 M-1.41 61.08 C20.77 38.11, 39.55 16.7, 54.38 0.37 M2.14 65.2 C17.8 46.8, 27.35 32.69, 54.59 2 M-0.06 66.04 C14.84 48.38, 32.06 30.66, 57.47 0.01 M-3.81 74.25 C22.26 54.76, 36.29 26.64, 64.9 1.95 M0.62 72.2 C21.54 46.85, 47.91 20.93, 63.42 -0.86 M3.86 75.49 C19.29 59.18, 38.38 36.68, 70.61 3.35 M1.02 80.47 C23.73 47.06, 48.05 18.6, 68.08 1.05 M-2.09 84.89 C18.35 63.54, 34.64 48.68, 71.43 -2.41 M-1.65 83.9 C23.23 59.42, 45.21 31.17, 75.23 0 M-1.01 90.34 C31.03 64.02, 58.61 28.5, 80.72 2.21 M-0.53 89.56 C31.19 58.49, 62.87 20.68, 77.45 -0.81 M-0.02 98.51 C31.95 59.79, 59.71 26.02, 82.47 3.04 M-0.34 97.16 C31.46 60.72, 64.48 22.37, 83.5 0.52 M3.8 101.46 C31.48 71.04, 66.73 28.1, 89.85 -3.42 M-1.26 105.16 C21.77 78.44, 43.85 55.44, 91.18 -1.41 M-2.84 107.1 C32.84 73.86, 63.03 36.74, 94.16 -3.87 M1.23 108.9 C26.72 80.96, 51.79 54.55, 94.74 -1.54 M2.92 114.18 C36.23 73.57, 67.23 40.95, 99.35 2.12 M-0.91 115.25 C35.26 74.34, 71.02 31.36, 101.7 1.61 M2.6 122.57 C27.59 92.92, 51.96 68.05, 103.02 0.32 M0.56 120.46 C37.4 81.23, 78.21 36.1, 108.27 -0.24 M-3.29 132.22 C42.9 78.41, 90.98 23.29, 114.91 -3.9 M0.93 128.79 C29.48 95.1, 58.58 63.74, 112.22 0.79 M2.53 133.68 C34.52 86.91, 71.75 51.21, 113.27 -2.57 M-1.37 134.63 C44.83 87.34, 89.48 35.99, 115.58 -0.69 M3.88 138.63 C34.56 97.47, 68.02 62.21, 122.6 -2.6 M-0.55 140.65 C46.66 84.57, 95.48 29.38, 120.8 -1.16 M3.5 146.83 C41.37 92.17, 82.98 46.78, 123.49 -3.32 M-0.77 144.38 C40.5 96.48, 79.55 48.36, 126.92 1.92 M1.37 155.98 C51.33 95.24, 99.6 38.51, 129.27 2.27 M0.64 152.18 C35.9 105.92, 77.43 60.78, 132.3 0.62 M1.78 160.08 C41.37 110.75, 77 75.72, 138.54 -0.74 M2.21 155.51 C48.57 101.66, 99.4 48.03, 139.18 -0.99 M7.05 156.92 C48.8 113.88, 90.2 70.06, 144.43 1.47 M7.42 155.8 C47.24 111.62, 84.54 71.12, 142.41 1.27 M12.57 159.03 C58.27 107.23, 103.75 52.08, 148.74 2.47 M12.97 155.98 C50.97 108.99, 93.73 59.19, 147.62 0.73 M18.8 154.68 C60.29 104.52, 102.95 50.9, 153 2.25 M19.75 156.85 C51.6 121.36, 83.36 85.27, 153.45 -1.47 M22.49 157.05 C72.52 94.6, 130.84 33.07, 160.15 2.79 M22.64 156.13 C64.87 108.05, 106.46 62.36, 158.81 -1.19 M28.79 159.28 C70.87 104.73, 116.6 49.99, 165.3 -1.29 M28.26 156.54 C71.6 109.09, 113.79 60.23, 163 -0.95 M31.62 158.51 C80.02 104.52, 126.07 45.86, 171.66 1.29 M33.92 157.49 C69.73 120.12, 102.89 81.24, 169.36 -0.48 M39.93 153.59 C80.52 106.95, 124.8 59.91, 174.17 0.65 M38.23 156.06 C70.64 120.93, 104.26 85.54, 174.72 0.73 M43.9 154.96 C92.78 101.68, 137.98 52.16, 182.51 -3.07 M44.9 156.44 C79.52 116.05, 112.36 74.54, 180.18 -1.35 M48.34 153.89 C74.9 120.17, 102.42 88.42, 183.46 -2.03 M48.54 156.73 C97.01 98.72, 145.53 42.38, 184.08 -0.09 M52.98 153.66 C98.11 103.7, 143.89 52.41, 192.28 0.77 M56.18 154.83 C88.55 121.45, 121.1 81.56, 189.31 -0.73 M57.57 153.04 C93.87 110.54, 135.44 72.14, 193.79 -3.75 M58.84 156.51 C96.23 118.03, 130.64 81.62, 196.18 -1.62 M63.46 156.15 C122.9 92.48, 169.8 36.95, 200.86 0.45 M63.74 156.48 C112.51 96.76, 162.76 40.55, 202.66 1.03 M70.88 156.73 C117.81 97.65, 170.41 40.59, 209.66 2.49 M68.79 157.83 C103.2 120.5, 136.11 81.13, 207.94 -0.1 M76.75 158.36 C114.74 100.29, 165.59 53.64, 208.48 2.82 M76.71 156.47 C120.28 100.59, 169.95 45.06, 212.64 0.24 M79.6 159.21 C131.64 92.55, 187.55 32.68, 218.17 -3.27 M80.77 157.46 C129.64 98.19, 177.81 43.13, 218.79 -0.48 M83.93 157.63 C122.79 114.01, 162.14 70.9, 222.82 -1.61 M85.42 155.41 C134.85 95.17, 189.71 35.72, 223.01 0.45 M94.73 154.87 C133.89 112.83, 169.6 63.41, 231.58 3.06 M92.35 158.17 C140.1 102.9, 186.37 50.19, 227.1 1.3 M94.15 152.76 C152.74 96.77, 198.53 37.71, 230.57 -3.1 M96.9 155.82 C150.45 97.71, 202.61 41.18, 234.74 -1.73 M99.88 156.53 C145.39 115.64, 178.36 66.23, 236.99 -1.93 M102.5 155.01 C133.74 127.31, 160.63 94.98, 236.63 1.39 M106.28 158.2 C138.38 122.23, 169.55 90.34, 247.17 -1.14 M106.47 155.06 C155.51 100.91, 203.63 43.1, 242.39 1.16 M114.46 153.61 C158.48 98.73, 208.76 44.72, 248.65 0.13 M114.44 157.43 C161.4 100.03, 209.12 43.27, 248.5 -0.87 M115.94 154.31 C149.04 122.44, 173.49 88.52, 252.88 2.68 M119.05 156.02 C153.56 115.4, 192.28 71.23, 255.46 -1.04 M122.73 154.74 C154.4 122.97, 183.98 88.87, 261.42 2.9 M125.01 157.28 C177.14 96.16, 230.14 36.91, 260.82 1.65 M129.79 158.72 C155.32 125.07, 186.14 86.63, 257.73 4.04 M127.65 156.41 C178.41 104.44, 222.18 53.24, 260.66 6.19 M138.12 159.68 C179.52 99.66, 228.66 45.24, 256.79 12.87 M135.46 157.32 C178.64 107.15, 223.35 58.21, 260.96 11.47 M136.48 153.51 C187.81 102.43, 227.52 53.15, 258.56 17.72 M139.11 155.75 C178.45 110.96, 217.57 64.35, 259.09 18.79 M144.17 157.68 C187.08 110.28, 232.4 59.91, 256.19 28.22 M143.52 156.57 C172.98 122.53, 202.62 91.02, 259.07 23.37 M151.87 153.23 C177.51 124.79, 195.23 99.96, 262.67 29.86 M151.44 155.81 C185.43 118.79, 220.62 79.89, 260.58 32.49 M156.16 159.09 C194.14 113.99, 236.51 65.94, 259.29 38.94 M156.26 154.51 C191.34 116.9, 228.39 76.38, 257.72 36.03 M164.53 158.26 C190.31 121.43, 222.69 87.62, 257.32 45.15 M161.45 156.57 C186.23 128.62, 205.74 100.88, 259.09 44.62 M165.85 156.13 C187.26 126.57, 218.52 98.71, 255.86 50.03 M165.38 154.69 C192.42 126.28, 217.82 101.08, 260.06 47.82 M175.4 154.63 C195.58 127.98, 225.75 96.45, 262.14 57.94 M172.73 156.19 C204.7 117.26, 238.69 77.74, 261.37 56.68 M173.37 154.62 C201.53 127.12, 216.84 107.78, 262.06 62.38 M175.36 156.89 C201.67 129.2, 221.53 102.06, 258.11 61.63 M181.17 154.74 C206.77 132.11, 226.05 113.63, 256.49 68.93 M183.04 155.77 C209.41 127.81, 238.76 96.25, 258.34 67.11 M187.25 158.01 C212.43 128.1, 242.4 96.05, 259.09 69.77 M187.55 157.05 C208.68 131.78, 229.25 110.64, 259.34 73.72 M192.85 154.33 C212.71 136.85, 232.4 113.92, 262.07 82.19 M190.92 156.35 C206.65 136.66, 224.25 118.42, 259.7 80.3 M200.36 159.4 C216.89 142.36, 229.04 119.56, 256.54 83.58 M196.07 155.29 C217.94 132.82, 238.09 111.65, 258.05 86.58 M199.85 153.06 C221.12 130.4, 238.96 108.89, 258.99 93.68 M203.75 155.4 C218.42 138.68, 233.24 124.4, 257.97 91.06 M205.98 157.48 C227.73 141.05, 244.61 123.02, 259.69 101.59 M207.87 155.94 C221.22 137.79, 237.16 121.79, 258.68 97.63 M212.62 159.44 C227.95 144.69, 234.82 131.88, 260.39 104.24 M212.4 155.84 C225.82 142.04, 242.79 123.04, 259.18 105.66 M221.75 156.58 C233 145.31, 235.16 134.1, 256.18 112.93 M218.71 155.51 C233.38 144.6, 242.49 132.37, 258.46 108.2 M222 159.62 C237.62 139.89, 253.04 128.26, 255.78 112.31 M222.51 154.77 C232.84 146.17, 239.12 136.2, 258.15 114.53 M233.67 158.66 C235.93 146.08, 244.83 133.52, 260.07 118.63 M229.16 154.68 C235.67 150.41, 244.09 139.86, 259.45 124.09 M231.18 157.37 C243.46 142.02, 258.25 132.16, 258.4 130.74 M234.58 155.47 C242.8 146.89, 253.47 137.4, 257.84 129.06 M244.13 155.3 C246.42 145.86, 250.08 143.25, 258.42 136.58 M240.61 154.34 C245.07 150.45, 249.87 147.45, 259.21 132.52 M247.74 158.08 C246.93 155.66, 253.32 147.51, 259.82 143.71 M243.89 155.42 C250.41 149.96, 255.18 146.98, 260.03 142.57 M249.06 158.44 C254.58 155.78, 256.64 152.6, 259.06 146.29 M251.23 155.75 C254.69 151.47, 257.37 148.78, 258.66 146.69 M257.06 155.53 C257.32 155.87, 258.16 152.85, 259.11 152.34 M256.28 156.92 C256.88 154.86, 258.05 153.78, 259.93 152.21" stroke="#be4bdb" stroke-width="0.5" fill="none"></path><path d="M0.63 -1.35 C59.57 4.92, 123.25 4.22, 258.69 2.07 M-1.35 -0.5 C96.73 4.45, 192.36 4.28, 260.7 -0.76 M258.55 0 C258.09 39.17, 259.8 88.77, 259.02 152.7 M260.26 -0.58 C260.82 38.52, 262.66 75.01, 260.01 155.58 M260.44 153.75 C197.06 155.95, 139.1 158.28, -0.59 153.6 M260.04 155.42 C156.65 158.95, 56.92 158.59, 0.21 154.2 M-0.98 152.21 C-4.64 102.08, -0.99 53.55, 1.84 0.86 M0.73 152.96 C1.4 115, 3.76 77.97, -1.85 -0.94" stroke="#000000" stroke-width="1" fill="none"></path></g><g stroke-linecap="round" transform="translate(132.51980590820312 38.63677978515625) rotate(0 54.77166748046875 14.145767211914062)"><path d="M-1.42 1.31 C39.34 1.4, 77.8 0.99, 108.46 -0.82 M0.84 0.05 C41.9 -0.35, 83.16 -0.5, 110.08 -0.06 M108.58 -0.65 C109.41 10.65, 108.83 21.26, 109.5 29.86 M109.05 0.87 C109.55 5.98, 109.03 13.73, 110.25 27.6 M108.02 28.27 C70.13 28.39, 30.58 26.8, -1.35 26.72 M109.01 28.8 C71.02 28.18, 30.81 27.93, -0.35 27.79 M0.07 27.72 C1.16 18.3, 0.1 9.69, -1.42 1.12 M-0.46 28.1 C0.98 19.96, 0.88 11.61, 0.06 -0.84" stroke="#000000" stroke-width="1" fill="none"></path></g><g stroke-linecap="round" transform="translate(606.6858825683594 36.189300537109375) rotate(0 46.529327392578125 14.919189453125)"><path d="M1.45 -1.42 C34.3 -0.24, 65.45 1.2, 92.14 -0.39 M-0.28 0.06 C35.01 -1, 71.08 -1.42, 92.43 -0.38 M91.97 -0.25 C92.54 9.97, 92.63 18.1, 91.1 30.05 M93.54 -0.22 C93.14 7, 93.24 12.83, 93.49 30.12 M91.85 28.05 C66.13 28.99, 35.64 31.31, 1.64 28 M93.23 30.81 C57.44 30.19, 22.35 30.22, -0.11 29.16 M1.07 31.49 C-0.18 25.6, -1.9 17.37, 1.37 1.13 M0.17 29.17 C-0.98 19.72, -1.04 10.34, -0.22 0.53" stroke="#000000" stroke-width="1" fill="none"></path></g><g transform="translate(175.72409057617188 277.7215881347656) rotate(0 95.5 20)"><text x="0" y="14" font-family="Virgil, Segoe UI Emoji" font-size="16px" fill="#000000" text-anchor="start" style="white-space: pre;" direction="ltr">cnetns0 (Container/Child</text><text x="0" y="34" font-family="Virgil, Segoe UI Emoji" font-size="16px" fill="#000000" text-anchor="start" style="white-space: pre;" direction="ltr">Namespace)</text></g><g transform="translate(565.9355887858073 276.12646593366355) rotate(0 96 20)"><text x="0" y="14" font-family="Virgil, Segoe UI Emoji" font-size="16px" fill="#000000" text-anchor="start" style="white-space: pre;" direction="ltr">cnetns1 (Container/Child </text><text x="0" y="34" font-family="Virgil, Segoe UI Emoji" font-size="16px" fill="#000000" text-anchor="start" style="white-space: pre;" direction="ltr">Namespace)</text></g><g transform="translate(452.3114318847656 457.7176208496094) rotate(0 22.5 10)"><text x="22.5" y="14" font-family="Virgil, Segoe UI Emoji" font-size="16px" fill="#000000" text-anchor="middle" style="white-space: pre;" direction="ltr">br_fe</text></g><g transform="translate(167.29150390625 42.236419677734375) rotate(0 28 10)"><text x="28" y="14" font-family="Virgil, Segoe UI Emoji" font-size="16px" fill="#000000" text-anchor="middle" style="white-space: pre;" direction="ltr">enp8s0</text></g><g transform="translate(624.3697814941406 39.0009765625) rotate(0 26 10)"><text x="26" y="14" font-family="Virgil, Segoe UI Emoji" font-size="16px" fill="#000000" text-anchor="middle" style="white-space: pre;" direction="ltr">enp7s0</text></g><g stroke-linecap="round" transform="translate(97.14859008789062 188.17056274414062) rotate(0 368.49072265625 165.19891357421875)"><path d="M-1.23 1.41 C243 0.35, 488.22 0.28, 736.97 -1.4 M0.32 0 C235.71 3.67, 471.64 4.37, 737.62 -0.6 M739.24 -2.29 C737.53 74.05, 734.27 142.08, 737.82 331.22 M735.74 -0.09 C738.07 94.39, 736.31 188.09, 738.33 330.34 M737.47 330.78 C473.12 327.12, 211.27 325.39, -0.66 331.87 M736.34 331.06 C485.49 328.92, 233.84 329.79, -0.32 331.18 M0.34 330.74 C-2.36 212.57, -2.9 95.11, 0.6 1.79 M-0.02 330.29 C4.13 240.04, 3.08 147.65, -1.36 -0.89" stroke="#000000" stroke-width="1" fill="none"></path></g><g transform="translate(20.608245849609375 81.95916748046875) rotate(0 75 10)"><text x="0" y="14" font-family="Virgil, Segoe UI Emoji" font-size="16px" fill="#000000" text-anchor="start" style="white-space: pre;" direction="ltr">Baremetal (Server)</text></g><g transform="translate(86.65420532226562 157.92938232421875) rotate(0 35.5 10)"><text x="0" y="14" font-family="Virgil, Segoe UI Emoji" font-size="16px" fill="#000000" text-anchor="start" style="white-space: pre;" direction="ltr">VM (KVM)</text></g><g transform="translate(106.52279663085938 197.834228515625) rotate(0 65 10)"><text x="0" y="14" font-family="Virgil, Segoe UI Emoji" font-size="16px" fill="#000000" text-anchor="start" style="white-space: pre;" direction="ltr">Root Namespace</text></g><g stroke-linecap="round" transform="translate(236.46591186523438 373.6922302246094) rotate(0 29.315765380859375 13.64312744140625)"><path d="M-1.99 -0.56 C13 -0.35, 27.6 0.74, 58.85 -1.73 M-0.9 -0.49 C21.47 -0.02, 42.89 0.97, 59.2 -0.78 M60.49 -0.9 C57.72 9.33, 58.05 18.05, 58.24 25.33 M57.68 -0.72 C59.28 6.98, 57.62 12.52, 58.12 27.1 M57.93 26.48 C45.37 28.71, 32.72 26.49, -0.51 27.33 M57.95 28.04 C39.05 26.87, 17.78 28.39, 0.46 26.64 M0.49 28.34 C0.3 20.01, -1.9 12.13, 0.19 0.19 M-0.02 28.23 C1.13 21.52, 0.21 15.33, 0.58 -0.56" stroke="#000000" stroke-width="1" fill="none"></path></g><g transform="translate(239.35440063476562 378.5381774902344) rotate(0 22.5 10)"><text x="22.5" y="14" font-family="Virgil, Segoe UI Emoji" font-size="16px" fill="#000000" text-anchor="middle" style="white-space: pre;" direction="ltr">ceth0</text></g><g stroke-linecap="round" transform="translate(641.4192199707031 374.2336120605469) rotate(0 33.2960205078125 12.84222412109375)"><path d="M0.38 1.71 C22.77 -0.56, 49.25 -1.1, 68 0.71 M0.28 -0.52 C25.98 -0.82, 51.94 -1.57, 66.42 -0.68 M66.31 0.15 C68.27 8.35, 67.27 19.39, 67.24 26.84 M66.43 -0.66 C66.83 7.29, 65.65 12.54, 66.84 25.13 M65.68 25.45 C46.99 27.35, 26.97 24.71, -1.82 27.11 M65.82 26.45 C48.33 24.37, 29.28 26.02, -0.1 26.25 M0.4 26.06 C-0.51 14.89, 2.07 5.77, 0.61 1.42 M1 24.82 C-0.11 18.33, -0.21 10.44, -0.87 -0.09" stroke="#000000" stroke-width="1" fill="none"></path></g><g transform="translate(652.4826354980469 379.22125244140625) rotate(0 19 10)"><text x="19" y="14" font-family="Virgil, Segoe UI Emoji" font-size="16px" fill="#000000" text-anchor="middle" style="white-space: pre;" direction="ltr">ceth1</text></g><g stroke-linecap="round" transform="translate(226.22225952148438 454.5614929199219) rotate(0 37.1331787109375 16.5361328125)"><path d="M-1.99 -0.14 C17.13 1.04, 33.05 1.74, 75.36 1.54 M-0.05 0.53 C29.13 0.02, 58.03 -0.57, 75.22 0.27 M75.27 -1.43 C74.48 10.09, 74.8 20.64, 75.45 33.79 M74.84 -0.39 C73.76 11.48, 73.53 23.28, 73.56 32.94 M73.73 31.17 C54.59 34.82, 31.87 31.22, -0.21 33.91 M73.43 33.08 C50.83 32.36, 26.39 32.79, 1 32.16 M1.47 33.45 C0.9 21.25, -1.79 5.72, 0.15 1.43 M0.58 33.74 C-0.5 24.15, 1 13.82, -0.52 -0.02" stroke="#000000" stroke-width="1" fill="none"></path></g><g stroke-linecap="round" transform="translate(640.1388854980469 450.0965881347656) rotate(0 37.1331787109375 16.5361328125)"><path d="M0.84 0.43 C13.9 0.46, 28.75 0.1, 75.17 -1.72 M-0.91 0.92 C21.9 -1.62, 43.63 -0.55, 74.79 0.56 M75.7 -0.25 C72.77 6.71, 75.19 15.74, 72.84 34.25 M74.24 -0.4 C73.95 12.54, 73.88 25.96, 73.88 33.63 M75.2 31.25 C53.95 34.79, 32.71 33.95, 1.66 32.2 M74.24 32.91 C53.64 32.73, 34.51 33.41, -0.43 33.88 M1.26 33.5 C1.57 20.32, 0.92 8.47, -0.86 1.03 M-0.33 32.98 C0.13 20.53, -0.69 6.91, -0.67 -0.37" stroke="#000000" stroke-width="1" fill="none"></path></g><g transform="translate(240.79049682617188 461.0326843261719) rotate(0 22.5 10)"><text x="22.5" y="14" font-family="Virgil, Segoe UI Emoji" font-size="16px" fill="#000000" text-anchor="middle" style="white-space: pre;" direction="ltr">veth0</text></g><g transform="translate(658.2720642089844 456.6327209472656) rotate(0 19 10)"><text x="19" y="14" font-family="Virgil, Segoe UI Emoji" font-size="16px" fill="#000000" text-anchor="middle" style="white-space: pre;" direction="ltr">veth1</text></g><g stroke-linecap="round"><g transform="translate(262.3258361816406 404.1861877441406) rotate(0 0.24125719978809457 26.58480364978311)"><path d="M0.73 -0.86 C0.54 8.03, -0.43 45.01, -0.22 54.03" stroke="#000000" stroke-width="1.5" fill="none" stroke-dasharray="1.5 7"></path></g></g><g stroke-linecap="round"><g transform="translate(674.2648010253906 405.4819641113281) rotate(0 -0.20803482234475723 22.87768361270429)"><path d="M-1.15 -1.11 C-0.86 6.58, 0.41 38.93, 0.74 46.86" stroke="#000000" stroke-width="1.5" fill="none" stroke-dasharray="1.5 7"></path></g></g><g stroke-linecap="round" transform="translate(430.9591979980469 455.9881896972656) rotate(0 45.552764892578125 11.9404296875)"><path d="M0.26 1.93 C28.3 1.48, 57.7 1.78, 91.11 -1.99 M0.05 -0.67 C22.83 -0.3, 44.66 1.46, 91.99 0.17 M89.21 -1.35 C89.84 4.85, 91.05 11.69, 92.01 23.46 M91.83 0.03 C92.15 8.72, 90.73 16.06, 91.54 23.39 M89.29 24.91 C54.96 23.93, 19.37 24.08, -0.38 23.04 M91.05 24.41 C62.98 24.8, 35.42 23.9, 0 24.77 M-0.25 25.81 C-0.53 15.44, -1 6.81, 1.48 -1.2 M-0.11 24.67 C-0.26 18.09, 0.24 13.11, 0.6 -0.18" stroke="#000000" stroke-width="1" fill="none"></path></g><g stroke-linecap="round"><g transform="translate(304.3038024902344 470.7622985839844) rotate(0 59.41359480232467 0.2395973505685447)"><path d="M1.04 0.19 C20.74 0.33, 98.98 0.16, 118.69 0.27 M0.13 -0.75 C19.62 -0.45, 97.93 0.8, 117.73 1.23" stroke="#000000" stroke-width="1" fill="none"></path></g></g><g stroke-linecap="round"><g transform="translate(639.2241516113281 465.9314270019531) rotate(0 -56.15281183793206 0.6224384196056008)"><path d="M0.23 0.45 C-18.43 0.88, -93.03 1.66, -111.59 1.61 M-1.12 -0.36 C-19.96 -0.19, -94.11 -0.38, -112.53 -0.15" stroke="#000000" stroke-width="1" fill="none"></path></g></g><g stroke-linecap="round" transform="translate(377.7207336425781 95.08355712890625) rotate(0 73.62600708007812 12.281387329101562)"><path d="M-1.13 0.25 C44.79 -0.62, 90.01 -0.46, 146.83 -0.69 M-0.43 -0.56 C42.03 -1.7, 82.64 -1.45, 147.12 0.53 M146.75 -0.73 C149.17 8.16, 145.44 14.52, 146.26 23.95 M147.34 -0.37 C147.19 7.8, 147.59 16.87, 148.22 25.49 M146.32 25.01 C112.41 24.29, 75.58 26.37, -1.83 24.35 M146.51 24.74 C98.12 23.99, 48.15 24.82, 0.09 25.08 M-1.48 26.54 C0.04 14.33, -1.01 6.3, -1.94 1.88 M0.9 24.42 C-0.23 18.25, 0.12 14.11, 0.89 0.63" stroke="#000000" stroke-width="1" fill="none"></path></g><g transform="translate(386.1061096191406 99.86666870117188) rotate(0 22.5 10)"><text x="0" y="14" font-family="Virgil, Segoe UI Emoji" font-size="16px" fill="#000000" text-anchor="start" style="white-space: pre;" direction="ltr">virbr0</text></g><g stroke-linecap="round" transform="translate(410.5122375488281 164.59674072265625) rotate(0 55.72418212890625 10.389907836914062)"><path d="M-0.65 -1.34 C25.35 0.09, 52.08 -0.19, 111 1.97 M0.49 0.91 C30.49 0.2, 61.17 -0.91, 110.71 0.31 M113.12 0.15 C109.53 8.28, 112.11 14.72, 112.53 20.63 M110.69 -0.57 C110.47 5.98, 110.86 13.14, 111.55 21.48 M113.07 21.87 C86.42 19.46, 63.73 19.56, -1.9 20.27 M110.87 20.93 C87.29 20.2, 62.01 19.49, -0.14 19.8 M1.59 18.86 C-0.06 11.4, 0.4 6.3, -1.84 1.08 M0.24 19.96 C-0.39 14.42, -0.93 6.63, -0.7 -0.53" stroke="#000000" stroke-width="1" fill="none"></path></g><g transform="translate(443.3059997558594 164.21827697753906) rotate(0 22.5 10)"><text x="22.5" y="14" font-family="Virgil, Segoe UI Emoji" font-size="16px" fill="#000000" text-anchor="middle" style="white-space: pre;" direction="ltr">vnet0</text></g><g stroke-linecap="round" transform="translate(439.2558898925781 213.03988647460938) rotate(0 32.012451171875 11.46014404296875)"><path d="M0.1 -0.79 C14.4 -1.48, 25.38 -0.78, 65.79 0.21 M1 -0.18 C23.2 -0.06, 48.17 -0.12, 64.62 0.98 M63.76 -0.56 C64.83 5.87, 65.55 11.28, 62.85 23.91 M64.9 -0.91 C64.25 5.95, 63.44 12.03, 63.54 23.9 M64.81 21.64 C47.26 21.99, 29.13 23.93, 0.9 24.3 M63.89 23.11 C46.26 23.14, 29.24 23.67, 0.17 22.33 M1.37 24.83 C-1.56 14.97, -1.08 4.63, -0.71 1.84 M-0.7 22.04 C0.58 14.94, -0.73 7.95, -0.58 0.35" stroke="#000000" stroke-width="1" fill="none"></path></g><g transform="translate(446.0396423339844 212.93450927734375) rotate(0 24 10)"><text x="24" y="14" font-family="Virgil, Segoe UI Emoji" font-size="16px" fill="#000000" text-anchor="middle" style="white-space: pre;" direction="ltr">enp1s0</text></g><g transform="translate(399.2809143066406 239.47357177734375) rotate(0 74 10)"><text x="74" y="14" font-family="Virgil, Segoe UI Emoji" font-size="16px" fill="#000000" text-anchor="middle" style="white-space: pre;" direction="ltr">192.168.122.130/24</text></g><g stroke-linecap="round"><g transform="translate(466.1142185118049 194.0719957385212) rotate(0 0.704704194045064 8.396265073306864)"><path d="M0.93 -0.57 C0.85 2.15, 0.32 14.72, 0.53 17.36" stroke="#000000" stroke-width="1.5" fill="none" stroke-dasharray="1.5 7"></path></g></g><g stroke-linecap="round"><g transform="translate(494.4347229003906 101.84860229492188) rotate(0 0.2793971994892104 34.59613866116854)"><path d="M0.38 -0.53 C0.37 11.27, 0.19 57.98, 0.18 69.72" stroke="#000000" stroke-width="1.5" fill="none" stroke-dasharray="1.5 7"></path></g></g><g stroke-linecap="round" transform="translate(488.1484680175781 102.3382568359375) rotate(0 6.755340576171875 5.0891265869140625)"><path d="M3.68 0.24 C4.71 -0.54, 6.49 -1.03, 7.96 -0.84 C9.42 -0.66, 11.42 0.31, 12.47 1.33 C13.51 2.35, 14.21 3.98, 14.22 5.29 C14.23 6.6, 13.7 8.38, 12.53 9.18 C11.36 9.98, 8.78 9.89, 7.22 10.07 C5.65 10.26, 4.14 10.91, 3.14 10.28 C2.13 9.64, 1.68 7.63, 1.19 6.28 C0.71 4.93, -0.34 3.29, 0.24 2.17 C0.82 1.05, 4.05 -0.29, 4.68 -0.45 C5.31 -0.62, 4.11 0.91, 4.01 1.2 M10.97 0.34 C12.2 0.42, 11.19 0.65, 11.66 1.87 C12.13 3.09, 13.99 6.26, 13.79 7.66 C13.59 9.05, 11.89 9.9, 10.46 10.23 C9.03 10.56, 6.64 10.02, 5.2 9.61 C3.76 9.21, 2.47 8.69, 1.82 7.82 C1.18 6.96, 1.57 5.38, 1.33 4.43 C1.09 3.47, -0.03 2.62, 0.37 2.09 C0.77 1.56, 2.29 1.73, 3.7 1.25 C5.12 0.77, 7.73 -0.7, 8.85 -0.78 C9.97 -0.85, 10.18 0.6, 10.43 0.79" stroke="#000000" stroke-width="1" fill="none"></path></g><g transform="translate(121.60171508789062 16.33966064453125) rotate(0 61 10)"><text x="0" y="14" font-family="Virgil, Segoe UI Emoji" font-size="16px" fill="#000000" text-anchor="start" style="white-space: pre;" direction="ltr">192.168.2.21/24</text></g><g transform="translate(211.33645629882812 350.2351989746094) rotate(0 57 10)"><text x="0" y="14" font-family="Virgil, Segoe UI Emoji" font-size="16px" fill="#000000" text-anchor="start" style="white-space: pre;" direction="ltr">172.20.0.50/16</text></g><g transform="translate(617.6579284667969 352.3475646972656) rotate(0 57.5 10)"><text x="0" y="14" font-family="Virgil, Segoe UI Emoji" font-size="16px" fill="#000000" text-anchor="start" style="white-space: pre;" direction="ltr">172.20.0.60/16</text></g><g transform="translate(377.0301818847656 76.24380493164062) rotate(0 63.5 10)"><text x="0" y="14" font-family="Virgil, Segoe UI Emoji" font-size="16px" fill="#000000" text-anchor="start" style="white-space: pre;" direction="ltr">192.168.122.1/24</text></g><g transform="translate(430.7778015136719 409.1673278808594) rotate(0 49 20)"><text x="0" y="14" font-family="Virgil, Segoe UI Emoji" font-size="16px" fill="#000000" text-anchor="start" style="white-space: pre;" direction="ltr"></text><text x="0" y="34" font-family="Virgil, Segoe UI Emoji" font-size="16px" fill="#000000" text-anchor="start" style="white-space: pre;" direction="ltr">172.20.0.1/16</text></g><g transform="translate(603.0108947753906 10) rotate(0 42 20)"><text x="0" y="14" font-family="Virgil, Segoe UI Emoji" font-size="16px" fill="#000000" text-anchor="start" style="white-space: pre;" direction="ltr">10.0.0.1/24</text><text x="0" y="34" font-family="Virgil, Segoe UI Emoji" font-size="16px" fill="#000000" text-anchor="start" style="white-space: pre;" direction="ltr"></text></g></svg>